<svg width="214" height="62" viewBox="0 0 214 62" fill="none" xmlns="http://www.w3.org/2000/svg">
<circle cx="16.7965" cy="23.0618" r="16.3844" fill="black"/>
<path d="M16.7963 46L5.67125 35.082C5.67125 35.082 28.2381 34.753 28.0742 34.9375C27.9104 35.122 16.7963 46 16.7963 46Z" fill="black"/>
<ellipse cx="16.7971" cy="23.4714" rx="12.2883" ry="12.6979" fill="#F5F5F5"/>
<mask id="mask0_1095_29013" style="mask-type:alpha" maskUnits="userSpaceOnUse" x="8" y="14" width="18" height="18">
<rect x="8.05859" y="14.3242" width="17.1285" height="17.1285" fill="#D9D9D9"/>
</mask>
<g mask="url(#mask0_1095_29013)">
<path d="M13.0541 30.0254V23.4951C12.4475 23.3285 11.939 22.9957 11.5286 22.4959C11.1183 21.9962 10.9131 21.4138 10.9131 20.7474L11.1919 15.7516L12.0455 15.7516V20.7474H13.0541L13.4165 15.7516L14.2442 15.7516L14.4815 20.7474H15.4858V15.7516H16.2618L16.6226 20.7474C16.6226 21.4138 16.4174 21.9962 16.007 22.4959C15.5967 22.9957 15.0882 23.3285 14.4815 23.4951V30.0254H13.0541ZM20.191 30.0254V24.3159H19.0502V19.1814C19.0502 18.1592 18.9832 17.1892 19.679 16.4931C20.3749 15.7971 20.6311 15.7516 21.6184 15.7516V30.0254H20.191Z" fill="#1C1B1F"/>
<path d="M13.0541 30.0254V23.4951C12.4475 23.3286 11.939 22.9955 11.5286 22.4959C11.1183 21.9964 10.9131 21.4135 10.9131 20.7474L11.1919 15.7516L12.0455 15.7516V20.7474H13.0541L13.4165 15.7516L14.2442 15.7516L14.4815 20.7474H15.4858V15.7516H16.2618L16.6226 20.7474C16.6226 21.4135 16.4174 21.9964 16.007 22.4959C15.5967 22.9955 15.0882 23.3286 14.4815 23.4951V30.0254H13.0541ZM20.191 30.0254V24.3158L21.6184 15.7516L19.0502 19.1342C19.0502 18.147 18.9543 17.2767 19.6501 16.5809C20.346 15.885 20.6311 15.7516 21.6184 15.7516V30.0254H20.191Z" fill="#1C1B1F"/>
</g>
<path d="M46.5746 29.36C44.8946 29.36 43.2846 29.14 41.7446 28.7C40.2046 28.24 38.9646 27.65 38.0246 26.93L39.6746 23.27C40.5746 23.91 41.6346 24.44 42.8546 24.86C44.0946 25.26 45.3446 25.46 46.6046 25.46C47.5646 25.46 48.3346 25.37 48.9146 25.19C49.5146 24.99 49.9546 24.72 50.2346 24.38C50.5146 24.04 50.6546 23.65 50.6546 23.21C50.6546 22.65 50.4346 22.21 49.9946 21.89C49.5546 21.55 48.9746 21.28 48.2546 21.08C47.5346 20.86 46.7346 20.66 45.8546 20.48C44.9946 20.28 44.1246 20.04 43.2446 19.76C42.3846 19.48 41.5946 19.12 40.8746 18.68C40.1546 18.24 39.5646 17.66 39.1046 16.94C38.6646 16.22 38.4446 15.3 38.4446 14.18C38.4446 12.98 38.7646 11.89 39.4046 10.91C40.0646 9.91 41.0446 9.12 42.3446 8.54C43.6646 7.94 45.3146 7.64 47.2946 7.64C48.6146 7.64 49.9146 7.8 51.1946 8.12C52.4746 8.42 53.6046 8.88 54.5846 9.5L53.0846 13.19C52.1046 12.63 51.1246 12.22 50.1446 11.96C49.1646 11.68 48.2046 11.54 47.2646 11.54C46.3246 11.54 45.5546 11.65 44.9546 11.87C44.3546 12.09 43.9246 12.38 43.6646 12.74C43.4046 13.08 43.2746 13.48 43.2746 13.94C43.2746 14.48 43.4946 14.92 43.9346 15.26C44.3746 15.58 44.9546 15.84 45.6746 16.04C46.3946 16.24 47.1846 16.44 48.0446 16.64C48.9246 16.84 49.7946 17.07 50.6546 17.33C51.5346 17.59 52.3346 17.94 53.0546 18.38C53.7746 18.82 54.3546 19.4 54.7946 20.12C55.2546 20.84 55.4846 21.75 55.4846 22.85C55.4846 24.03 55.1546 25.11 54.4946 26.09C53.8346 27.07 52.8446 27.86 51.5246 28.46C50.2246 29.06 48.5746 29.36 46.5746 29.36ZM66.4854 29.24C64.6454 29.24 63.0254 28.88 61.6254 28.16C60.2454 27.44 59.1754 26.46 58.4154 25.22C57.6554 23.96 57.2754 22.53 57.2754 20.93C57.2754 19.31 57.6454 17.88 58.3854 16.64C59.1454 15.38 60.1754 14.4 61.4754 13.7C62.7754 12.98 64.2454 12.62 65.8854 12.62C67.4654 12.62 68.8854 12.96 70.1454 13.64C71.4254 14.3 72.4354 15.26 73.1754 16.52C73.9154 17.76 74.2854 19.25 74.2854 20.99C74.2854 21.17 74.2754 21.38 74.2554 21.62C74.2354 21.84 74.2154 22.05 74.1954 22.25H61.0854V19.52H71.7354L69.9354 20.33C69.9354 19.49 69.7654 18.76 69.4254 18.14C69.0854 17.52 68.6154 17.04 68.0154 16.7C67.4154 16.34 66.7154 16.16 65.9154 16.16C65.1154 16.16 64.4054 16.34 63.7854 16.7C63.1854 17.04 62.7154 17.53 62.3754 18.17C62.0354 18.79 61.8654 19.53 61.8654 20.39V21.11C61.8654 21.99 62.0554 22.77 62.4354 23.45C62.8354 24.11 63.3854 24.62 64.0854 24.98C64.8054 25.32 65.6454 25.49 66.6054 25.49C67.4654 25.49 68.2154 25.36 68.8554 25.1C69.5154 24.84 70.1154 24.45 70.6554 23.93L73.1454 26.63C72.4054 27.47 71.4754 28.12 70.3554 28.58C69.2354 29.02 67.9454 29.24 66.4854 29.24ZM86.8618 29V25.85L86.5618 25.16V19.52C86.5618 18.52 86.2518 17.74 85.6318 17.18C85.0318 16.62 84.1018 16.34 82.8418 16.34C81.9818 16.34 81.1318 16.48 80.2918 16.76C79.4718 17.02 78.7718 17.38 78.1918 17.84L76.5118 14.57C77.3918 13.95 78.4518 13.47 79.6918 13.13C80.9318 12.79 82.1918 12.62 83.4718 12.62C85.9318 12.62 87.8418 13.2 89.2018 14.36C90.5618 15.52 91.2418 17.33 91.2418 19.79V29H86.8618ZM81.9418 29.24C80.6818 29.24 79.6018 29.03 78.7018 28.61C77.8018 28.17 77.1118 27.58 76.6318 26.84C76.1518 26.1 75.9118 25.27 75.9118 24.35C75.9118 23.39 76.1418 22.55 76.6018 21.83C77.0818 21.11 77.8318 20.55 78.8518 20.15C79.8718 19.73 81.2018 19.52 82.8418 19.52H87.1318V22.25H83.3518C82.2518 22.25 81.4918 22.43 81.0718 22.79C80.6718 23.15 80.4718 23.6 80.4718 24.14C80.4718 24.74 80.7018 25.22 81.1618 25.58C81.6418 25.92 82.2918 26.09 83.1118 26.09C83.8918 26.09 84.5918 25.91 85.2118 25.55C85.8318 25.17 86.2818 24.62 86.5618 23.9L87.2818 26.06C86.9418 27.1 86.3218 27.89 85.4218 28.43C84.5218 28.97 83.3618 29.24 81.9418 29.24ZM102.077 29.24C100.177 29.24 98.6974 28.76 97.6374 27.8C96.5774 26.82 96.0474 25.37 96.0474 23.45V9.29H100.727V23.39C100.727 24.07 100.907 24.6 101.267 24.98C101.627 25.34 102.117 25.52 102.737 25.52C103.477 25.52 104.107 25.32 104.627 24.92L105.887 28.22C105.407 28.56 104.827 28.82 104.147 29C103.487 29.16 102.797 29.24 102.077 29.24ZM93.5574 16.82V13.22H104.747V16.82H93.5574ZM113.944 29.24C112.564 29.24 111.234 29.08 109.954 28.76C108.694 28.42 107.694 28 106.954 27.5L108.514 24.14C109.254 24.6 110.124 24.98 111.124 25.28C112.144 25.56 113.144 25.7 114.124 25.7C115.204 25.7 115.964 25.57 116.404 25.31C116.864 25.05 117.094 24.69 117.094 24.23C117.094 23.85 116.914 23.57 116.554 23.39C116.214 23.19 115.754 23.04 115.174 22.94C114.594 22.84 113.954 22.74 113.254 22.64C112.574 22.54 111.884 22.41 111.184 22.25C110.484 22.07 109.844 21.81 109.264 21.47C108.684 21.13 108.214 20.67 107.854 20.09C107.514 19.51 107.344 18.76 107.344 17.84C107.344 16.82 107.634 15.92 108.214 15.14C108.814 14.36 109.674 13.75 110.794 13.31C111.914 12.85 113.254 12.62 114.814 12.62C115.914 12.62 117.034 12.74 118.174 12.98C119.314 13.22 120.264 13.57 121.024 14.03L119.464 17.36C118.684 16.9 117.894 16.59 117.094 16.43C116.314 16.25 115.554 16.16 114.814 16.16C113.774 16.16 113.014 16.3 112.534 16.58C112.054 16.86 111.814 17.22 111.814 17.66C111.814 18.06 111.984 18.36 112.324 18.56C112.684 18.76 113.154 18.92 113.734 19.04C114.314 19.16 114.944 19.27 115.624 19.37C116.324 19.45 117.024 19.58 117.724 19.76C118.424 19.94 119.054 20.2 119.614 20.54C120.194 20.86 120.664 21.31 121.024 21.89C121.384 22.45 121.564 23.19 121.564 24.11C121.564 25.11 121.264 26 120.664 26.78C120.064 27.54 119.194 28.14 118.054 28.58C116.934 29.02 115.564 29.24 113.944 29.24ZM129.282 17.45H139.362V21.35H129.282V17.45ZM129.642 29H124.782V8H140.652V11.9H129.642V29ZM143.612 29V6.74H148.292V29H143.612ZM160.316 29.24C158.596 29.24 157.066 28.88 155.726 28.16C154.406 27.44 153.356 26.46 152.576 25.22C151.816 23.96 151.436 22.53 151.436 20.93C151.436 19.31 151.816 17.88 152.576 16.64C153.356 15.38 154.406 14.4 155.726 13.7C157.066 12.98 158.596 12.62 160.316 12.62C162.016 12.62 163.536 12.98 164.876 13.7C166.216 14.4 167.266 15.37 168.026 16.61C168.786 17.85 169.166 19.29 169.166 20.93C169.166 22.53 168.786 23.96 168.026 25.22C167.266 26.46 166.216 27.44 164.876 28.16C163.536 28.88 162.016 29.24 160.316 29.24ZM160.316 25.4C161.096 25.4 161.796 25.22 162.416 24.86C163.036 24.5 163.526 23.99 163.886 23.33C164.246 22.65 164.426 21.85 164.426 20.93C164.426 19.99 164.246 19.19 163.886 18.53C163.526 17.87 163.036 17.36 162.416 17C161.796 16.64 161.096 16.46 160.316 16.46C159.536 16.46 158.836 16.64 158.216 17C157.596 17.36 157.096 17.87 156.716 18.53C156.356 19.19 156.176 19.99 156.176 20.93C156.176 21.85 156.356 22.65 156.716 23.33C157.096 23.99 157.596 24.5 158.216 24.86C158.836 25.22 159.536 25.4 160.316 25.4ZM175.544 29L169.724 12.86H174.134L178.964 26.75H176.864L181.904 12.86H185.864L190.754 26.75H188.654L193.634 12.86H197.774L191.924 29H187.394L183.104 17.09H184.484L180.044 29H175.544Z" fill="black"/>
<path d="M49.2501 46.068C48.4681 46.068 47.7598 45.8867 47.1251 45.524C46.5018 45.1613 46.0031 44.64 45.6291 43.96C45.2665 43.28 45.0851 42.481 45.0851 41.563C45.0851 40.6223 45.2665 39.8177 45.6291 39.149C46.0031 38.4803 46.5018 37.9647 47.1251 37.602C47.7598 37.2393 48.4681 37.058 49.2501 37.058C50.0888 37.058 50.8368 37.2507 51.4941 37.636C52.1628 38.01 52.6841 38.537 53.0581 39.217C53.4435 39.8857 53.6361 40.6677 53.6361 41.563C53.6361 42.447 53.4435 43.229 53.0581 43.909C52.6841 44.589 52.1628 45.1217 51.4941 45.507C50.8368 45.881 50.0888 46.068 49.2501 46.068ZM44.7961 46V33.386H45.6461V39.999L45.4761 41.546L45.6121 43.093V46H44.7961ZM49.1991 45.303C49.8791 45.303 50.4911 45.15 51.0351 44.844C51.5791 44.5267 52.0041 44.0847 52.3101 43.518C52.6275 42.9513 52.7861 42.2997 52.7861 41.563C52.7861 40.815 52.6275 40.1633 52.3101 39.608C52.0041 39.0413 51.5791 38.605 51.0351 38.299C50.4911 37.9817 49.8791 37.823 49.1991 37.823C48.5191 37.823 47.9071 37.9817 47.3631 38.299C46.8305 38.605 46.4055 39.0413 46.0881 39.608C45.7821 40.1633 45.6291 40.815 45.6291 41.563C45.6291 42.2997 45.7821 42.9513 46.0881 43.518C46.4055 44.0847 46.8305 44.5267 47.3631 44.844C47.9071 45.15 48.5191 45.303 49.1991 45.303ZM59.7358 46.068C58.8858 46.068 58.1265 45.8753 57.4578 45.49C56.8005 45.1047 56.2735 44.572 55.8768 43.892C55.4915 43.212 55.2988 42.4357 55.2988 41.563C55.2988 40.679 55.4915 39.9027 55.8768 39.234C56.2735 38.554 56.8005 38.0213 57.4578 37.636C58.1265 37.2507 58.8858 37.058 59.7358 37.058C60.5858 37.058 61.3452 37.2507 62.0138 37.636C62.6825 38.0213 63.2095 38.554 63.5948 39.234C63.9802 39.9027 64.1728 40.679 64.1728 41.563C64.1728 42.4357 63.9802 43.212 63.5948 43.892C63.2095 44.572 62.6825 45.1047 62.0138 45.49C61.3452 45.8753 60.5858 46.068 59.7358 46.068ZM59.7358 45.303C60.4158 45.303 61.0278 45.15 61.5718 44.844C62.1158 44.5267 62.5408 44.0847 62.8468 43.518C63.1528 42.9513 63.3058 42.2997 63.3058 41.563C63.3058 40.815 63.1528 40.1633 62.8468 39.608C62.5408 39.0413 62.1158 38.605 61.5718 38.299C61.0278 37.9817 60.4158 37.823 59.7358 37.823C59.0558 37.823 58.4438 37.9817 57.8998 38.299C57.3672 38.605 56.9422 39.0413 56.6248 39.608C56.3188 40.1633 56.1658 40.815 56.1658 41.563C56.1658 42.2997 56.3188 42.9513 56.6248 43.518C56.9422 44.0847 57.3672 44.5267 57.8998 44.844C58.4438 45.15 59.0558 45.303 59.7358 45.303ZM70.2778 46.068C69.4278 46.068 68.6685 45.8753 67.9998 45.49C67.3425 45.1047 66.8155 44.572 66.4188 43.892C66.0335 43.212 65.8408 42.4357 65.8408 41.563C65.8408 40.679 66.0335 39.9027 66.4188 39.234C66.8155 38.554 67.3425 38.0213 67.9998 37.636C68.6685 37.2507 69.4278 37.058 70.2778 37.058C71.1278 37.058 71.8871 37.2507 72.5558 37.636C73.2245 38.0213 73.7515 38.554 74.1368 39.234C74.5221 39.9027 74.7148 40.679 74.7148 41.563C74.7148 42.4357 74.5221 43.212 74.1368 43.892C73.7515 44.572 73.2245 45.1047 72.5558 45.49C71.8871 45.8753 71.1278 46.068 70.2778 46.068ZM70.2778 45.303C70.9578 45.303 71.5698 45.15 72.1138 44.844C72.6578 44.5267 73.0828 44.0847 73.3888 43.518C73.6948 42.9513 73.8478 42.2997 73.8478 41.563C73.8478 40.815 73.6948 40.1633 73.3888 39.608C73.0828 39.0413 72.6578 38.605 72.1138 38.299C71.5698 37.9817 70.9578 37.823 70.2778 37.823C69.5978 37.823 68.9858 37.9817 68.4418 38.299C67.9091 38.605 67.4841 39.0413 67.1668 39.608C66.8608 40.1633 66.7078 40.815 66.7078 41.563C66.7078 42.2997 66.8608 42.9513 67.1668 43.518C67.4841 44.0847 67.9091 44.5267 68.4418 44.844C68.9858 45.15 69.5978 45.303 70.2778 45.303ZM77.9978 43.552L78.0148 42.481L83.8798 37.126H84.9678L81.0748 40.781L80.5648 41.206L77.9978 43.552ZM77.3518 46V33.386H78.2018V46H77.3518ZM84.2878 46L80.4118 41.138L80.9898 40.509L85.3418 46H84.2878ZM87.3459 46V37.126H88.1959V46H87.3459ZM87.7709 34.967C87.5783 34.967 87.4139 34.899 87.2779 34.763C87.1419 34.627 87.0739 34.4683 87.0739 34.287C87.0739 34.0943 87.1419 33.93 87.2779 33.794C87.4139 33.658 87.5783 33.59 87.7709 33.59C87.9749 33.59 88.1393 33.658 88.2639 33.794C88.3999 33.9187 88.4679 34.0773 88.4679 34.27C88.4679 34.4627 88.3999 34.627 88.2639 34.763C88.1393 34.899 87.9749 34.967 87.7709 34.967ZM96.1136 37.058C96.8389 37.058 97.4679 37.1997 98.0006 37.483C98.5446 37.755 98.9639 38.1743 99.2586 38.741C99.5646 39.2963 99.7176 39.9877 99.7176 40.815V46H98.8676V40.883C98.8676 39.8857 98.6126 39.1263 98.1026 38.605C97.6039 38.0837 96.9012 37.823 95.9946 37.823C95.3032 37.823 94.7026 37.9647 94.1926 38.248C93.6826 38.5313 93.2916 38.928 93.0196 39.438C92.7589 39.948 92.6286 40.56 92.6286 41.274V46H91.7786V37.126H92.5946V39.591L92.4756 39.319C92.7476 38.6163 93.1952 38.0667 93.8186 37.67C94.4419 37.262 95.2069 37.058 96.1136 37.058ZM106.906 49.366C106.101 49.366 105.336 49.2413 104.611 48.992C103.886 48.7427 103.296 48.397 102.843 47.955L103.302 47.309C103.744 47.717 104.271 48.0343 104.883 48.261C105.506 48.4877 106.175 48.601 106.889 48.601C108.079 48.601 108.952 48.3233 109.507 47.768C110.074 47.2127 110.357 46.34 110.357 45.15V42.685L110.527 41.359L110.391 40.033V37.126H111.207V45.048C111.207 46.5327 110.844 47.6207 110.119 48.312C109.405 49.0147 108.334 49.366 106.906 49.366ZM106.668 45.677C105.829 45.677 105.076 45.4957 104.407 45.133C103.75 44.759 103.223 44.249 102.826 43.603C102.441 42.9457 102.248 42.1977 102.248 41.359C102.248 40.509 102.441 39.761 102.826 39.115C103.223 38.469 103.75 37.9647 104.407 37.602C105.076 37.2393 105.829 37.058 106.668 37.058C107.473 37.058 108.192 37.2337 108.827 37.585C109.473 37.925 109.983 38.418 110.357 39.064C110.731 39.6987 110.918 40.4637 110.918 41.359C110.918 42.243 110.731 43.008 110.357 43.654C109.983 44.3 109.473 44.7987 108.827 45.15C108.192 45.5013 107.473 45.677 106.668 45.677ZM106.736 44.912C107.45 44.912 108.079 44.7647 108.623 44.47C109.167 44.164 109.592 43.7447 109.898 43.212C110.215 42.668 110.374 42.0503 110.374 41.359C110.374 40.6563 110.215 40.0387 109.898 39.506C109.592 38.9733 109.167 38.5597 108.623 38.265C108.079 37.9703 107.45 37.823 106.736 37.823C106.045 37.823 105.421 37.9703 104.866 38.265C104.322 38.5597 103.891 38.9733 103.574 39.506C103.268 40.0387 103.115 40.6563 103.115 41.359C103.115 42.0503 103.268 42.668 103.574 43.212C103.891 43.7447 104.322 44.164 104.866 44.47C105.421 44.7647 106.045 44.912 106.736 44.912ZM119.171 46V37.126H120.021V46H119.171ZM119.596 34.967C119.403 34.967 119.239 34.899 119.103 34.763C118.967 34.627 118.899 34.4683 118.899 34.287C118.899 34.0943 118.967 33.93 119.103 33.794C119.239 33.658 119.403 33.59 119.596 33.59C119.8 33.59 119.964 33.658 120.089 33.794C120.225 33.9187 120.293 34.0773 120.293 34.27C120.293 34.4627 120.225 34.627 120.089 34.763C119.964 34.899 119.8 34.967 119.596 34.967ZM125.848 46.068C125.111 46.068 124.42 45.9603 123.774 45.745C123.139 45.5297 122.646 45.2577 122.295 44.929L122.686 44.249C123.026 44.5437 123.479 44.7987 124.046 45.014C124.612 45.218 125.224 45.32 125.882 45.32C126.811 45.32 127.48 45.167 127.888 44.861C128.296 44.555 128.5 44.1527 128.5 43.654C128.5 43.2913 128.392 43.008 128.177 42.804C127.973 42.5887 127.695 42.4243 127.344 42.311C126.992 42.1977 126.607 42.107 126.188 42.039C125.768 41.9597 125.349 41.8747 124.93 41.784C124.51 41.6933 124.125 41.563 123.774 41.393C123.422 41.223 123.139 40.9907 122.924 40.696C122.72 40.39 122.618 39.9877 122.618 39.489C122.618 39.0357 122.742 38.6277 122.992 38.265C123.241 37.9023 123.615 37.6133 124.114 37.398C124.612 37.1713 125.236 37.058 125.984 37.058C126.539 37.058 127.094 37.1373 127.65 37.296C128.216 37.4547 128.675 37.6643 129.027 37.925L128.636 38.605C128.262 38.3217 127.842 38.1177 127.378 37.993C126.913 37.8683 126.443 37.806 125.967 37.806C125.105 37.806 124.471 37.9647 124.063 38.282C123.666 38.5993 123.468 38.996 123.468 39.472C123.468 39.846 123.57 40.1463 123.774 40.373C123.989 40.5883 124.272 40.7583 124.624 40.883C124.975 40.9963 125.36 41.0927 125.78 41.172C126.199 41.24 126.618 41.3193 127.038 41.41C127.457 41.5007 127.842 41.631 128.194 41.801C128.545 41.9597 128.823 42.1863 129.027 42.481C129.242 42.7643 129.35 43.1497 129.35 43.637C129.35 44.1243 129.214 44.5493 128.942 44.912C128.681 45.2747 128.29 45.558 127.769 45.762C127.247 45.966 126.607 46.068 125.848 46.068ZM138.332 46.068C137.595 46.068 136.904 45.9603 136.258 45.745C135.623 45.5297 135.13 45.2577 134.779 44.929L135.17 44.249C135.51 44.5437 135.963 44.7987 136.53 45.014C137.097 45.218 137.709 45.32 138.366 45.32C139.295 45.32 139.964 45.167 140.372 44.861C140.78 44.555 140.984 44.1527 140.984 43.654C140.984 43.2913 140.876 43.008 140.661 42.804C140.457 42.5887 140.179 42.4243 139.828 42.311C139.477 42.1977 139.091 42.107 138.672 42.039C138.253 41.9597 137.833 41.8747 137.414 41.784C136.995 41.6933 136.609 41.563 136.258 41.393C135.907 41.223 135.623 40.9907 135.408 40.696C135.204 40.39 135.102 39.9877 135.102 39.489C135.102 39.0357 135.227 38.6277 135.476 38.265C135.725 37.9023 136.099 37.6133 136.598 37.398C137.097 37.1713 137.72 37.058 138.468 37.058C139.023 37.058 139.579 37.1373 140.134 37.296C140.701 37.4547 141.16 37.6643 141.511 37.925L141.12 38.605C140.746 38.3217 140.327 38.1177 139.862 37.993C139.397 37.8683 138.927 37.806 138.451 37.806C137.59 37.806 136.955 37.9647 136.547 38.282C136.15 38.5993 135.952 38.996 135.952 39.472C135.952 39.846 136.054 40.1463 136.258 40.373C136.473 40.5883 136.757 40.7583 137.108 40.883C137.459 40.9963 137.845 41.0927 138.264 41.172C138.683 41.24 139.103 41.3193 139.522 41.41C139.941 41.5007 140.327 41.631 140.678 41.801C141.029 41.9597 141.307 42.1863 141.511 42.481C141.726 42.7643 141.834 43.1497 141.834 43.637C141.834 44.1243 141.698 44.5493 141.426 44.912C141.165 45.2747 140.774 45.558 140.253 45.762C139.732 45.966 139.091 46.068 138.332 46.068ZM144.206 46V37.126H145.056V46H144.206ZM144.631 34.967C144.439 34.967 144.274 34.899 144.138 34.763C144.002 34.627 143.934 34.4683 143.934 34.287C143.934 34.0943 144.002 33.93 144.138 33.794C144.274 33.658 144.439 33.59 144.631 33.59C144.835 33.59 145 33.658 145.124 33.794C145.26 33.9187 145.328 34.0773 145.328 34.27C145.328 34.4627 145.26 34.627 145.124 34.763C145 34.899 144.835 34.967 144.631 34.967ZM159.689 37.058C160.403 37.058 161.021 37.1997 161.542 37.483C162.075 37.755 162.488 38.1743 162.783 38.741C163.078 39.2963 163.225 39.9877 163.225 40.815V46H162.375V40.883C162.375 39.8857 162.131 39.1263 161.644 38.605C161.157 38.0837 160.477 37.823 159.604 37.823C158.935 37.823 158.357 37.9647 157.87 38.248C157.383 38.5313 157.009 38.928 156.748 39.438C156.487 39.948 156.357 40.56 156.357 41.274V46H155.507V40.883C155.507 39.8857 155.263 39.1263 154.776 38.605C154.289 38.0837 153.609 37.823 152.736 37.823C152.067 37.823 151.489 37.9647 151.002 38.248C150.515 38.5313 150.141 38.928 149.88 39.438C149.619 39.948 149.489 40.56 149.489 41.274V46H148.639V37.126H149.455V39.574L149.336 39.302C149.597 38.6107 150.033 38.0667 150.645 37.67C151.257 37.262 151.994 37.058 152.855 37.058C153.739 37.058 154.481 37.2847 155.082 37.738C155.694 38.18 156.079 38.843 156.238 39.727L155.949 39.608C156.187 38.8487 156.635 38.2367 157.292 37.772C157.949 37.296 158.748 37.058 159.689 37.058ZM171.189 46.068C170.407 46.068 169.698 45.8867 169.064 45.524C168.44 45.1613 167.942 44.6457 167.568 43.977C167.205 43.297 167.024 42.4923 167.024 41.563C167.024 40.6337 167.205 39.8347 167.568 39.166C167.942 38.486 168.44 37.9647 169.064 37.602C169.698 37.2393 170.407 37.058 171.189 37.058C172.027 37.058 172.775 37.2507 173.433 37.636C174.101 38.01 174.623 38.537 174.997 39.217C175.382 39.897 175.575 40.679 175.575 41.563C175.575 42.447 175.382 43.229 174.997 43.909C174.623 44.589 174.101 45.1217 173.433 45.507C172.775 45.881 172.027 46.068 171.189 46.068ZM166.735 49.298V37.126H167.551V40.033L167.415 41.58L167.585 43.127V49.298H166.735ZM171.138 45.303C171.818 45.303 172.43 45.15 172.974 44.844C173.518 44.5267 173.943 44.0847 174.249 43.518C174.566 42.9513 174.725 42.2997 174.725 41.563C174.725 40.815 174.566 40.1633 174.249 39.608C173.943 39.0413 173.518 38.605 172.974 38.299C172.43 37.9817 171.818 37.823 171.138 37.823C170.458 37.823 169.846 37.9817 169.302 38.299C168.769 38.605 168.344 39.0413 168.027 39.608C167.721 40.1633 167.568 40.815 167.568 41.563C167.568 42.2997 167.721 42.9513 168.027 43.518C168.344 44.0847 168.769 44.5267 169.302 44.844C169.846 45.15 170.458 45.303 171.138 45.303ZM178.206 46V33.386H179.056V46H178.206ZM186.243 46.068C185.348 46.068 184.554 45.8753 183.863 45.49C183.183 45.1047 182.645 44.572 182.248 43.892C181.863 43.212 181.67 42.4357 181.67 41.563C181.67 40.679 181.851 39.9027 182.214 39.234C182.588 38.554 183.098 38.0213 183.744 37.636C184.39 37.2507 185.115 37.058 185.92 37.058C186.725 37.058 187.444 37.245 188.079 37.619C188.725 37.993 189.229 38.52 189.592 39.2C189.966 39.8687 190.153 40.645 190.153 41.529C190.153 41.563 190.147 41.6027 190.136 41.648C190.136 41.682 190.136 41.7217 190.136 41.767H182.299V41.104H189.677L189.337 41.427C189.348 40.7357 189.201 40.118 188.895 39.574C188.6 39.0187 188.198 38.588 187.688 38.282C187.178 37.9647 186.589 37.806 185.92 37.806C185.263 37.806 184.673 37.9647 184.152 38.282C183.642 38.588 183.24 39.0187 182.945 39.574C182.65 40.118 182.503 40.7413 182.503 41.444V41.597C182.503 42.3223 182.662 42.9683 182.979 43.535C183.308 44.0903 183.755 44.5267 184.322 44.844C184.889 45.15 185.535 45.303 186.26 45.303C186.827 45.303 187.354 45.201 187.841 44.997C188.34 44.793 188.759 44.4813 189.099 44.062L189.592 44.623C189.207 45.099 188.719 45.4617 188.13 45.711C187.552 45.949 186.923 46.068 186.243 46.068Z" fill="black"/>
</svg>
