<?xml version="1.0" standalone="no"?>
<!DOCTYPE svg PUBLIC "-//W3C//DTD SVG 20010904//EN"
 "http://www.w3.org/TR/2001/REC-SVG-20010904/DTD/svg10.dtd">
<svg version="1.0" xmlns="http://www.w3.org/2000/svg"
 width="1071.000000pt" height="704.000000pt" viewBox="0 0 1071.000000 704.000000"
 preserveAspectRatio="xMidYMid meet">
<metadata>
Created by potrace 1.16, written by Peter Selinger 2001-2019
</metadata>
<g transform="translate(0.000000,704.000000) scale(0.100000,-0.100000)"
fill="#000000" stroke="none">
<path d="M5540 3921 l0 -1161 45 0 45 0 2 368 3 367 80 7 c328 30 599 264 686
593 29 111 29 279 0 390 -61 230 -208 413 -418 518 -87 45 -188 68 -320 74
l-123 6 0 -1162z m285 1042 c205 -50 393 -227 469 -442 29 -80 31 -95 31 -226
0 -128 -3 -148 -29 -229 -85 -258 -325 -450 -591 -473 l-75 -6 0 695 c0 382 3
698 7 702 9 9 114 -2 188 -21z"/>
<path d="M7565 5069 c-252 -34 -508 -167 -684 -355 -208 -223 -313 -487 -313
-789 -1 -318 118 -602 346 -830 347 -347 884 -431 1326 -210 633 318 838 1126
430 1703 -168 238 -422 404 -715 467 -89 19 -298 27 -390 14z m264 -89 c681
-70 1121 -749 905 -1395 -37 -112 -83 -199 -153 -292 -151 -200 -347 -334
-588 -400 -89 -25 -114 -28 -268 -28 -210 0 -293 18 -470 105 -380 185 -611
573 -592 995 12 253 94 461 262 659 162 191 430 331 677 355 121 12 117 12
227 1z"/>
<path d="M2713 4612 c-7 -4 -13 -36 -15 -72 l-3 -65 -134 -3 c-79 -1 -140 -7
-148 -14 -18 -15 -19 -2018 -1 -2036 17 -17 2169 -17 2186 0 18 18 17 2021 -1
2036 -8 7 -69 13 -148 14 l-134 3 -3 65 c-2 36 -8 68 -15 72 -7 4 -48 8 -92 8
-44 0 -85 -4 -92 -8 -7 -4 -13 -36 -15 -72 l-3 -65 -240 0 -240 0 -3 65 c-2
36 -8 68 -15 72 -7 4 -48 8 -92 8 -44 0 -85 -4 -92 -8 -7 -4 -13 -36 -15 -72
l-3 -65 -240 0 -240 0 -3 65 c-2 36 -8 68 -15 72 -7 4 -48 8 -92 8 -44 0 -85
-4 -92 -8z m127 -212 l0 -150 -35 0 -35 0 0 150 0 150 35 0 35 0 0 -150z m700
0 l0 -150 -35 0 -35 0 0 150 0 150 35 0 35 0 0 -150z m700 0 l0 -150 -35 0
-35 0 0 150 0 150 35 0 35 0 0 -150z m-1540 -110 l5 -105 80 -3 c130 -5 125
-10 125 113 l0 105 243 -2 242 -3 5 -105 5 -105 80 -3 c130 -5 125 -10 125
113 l0 105 245 0 244 0 3 -107 3 -108 100 0 100 0 3 108 3 107 114 0 115 0 0
-260 0 -260 -1035 0 -1035 0 0 260 0 261 113 -3 112 -3 5 -105z m1840 -1145
l0 -665 -1035 0 -1035 0 0 665 0 665 1035 0 1035 0 0 -665z"/>
<path d="M2672 3688 c-17 -17 -17 -329 0 -346 13 -13 301 -18 332 -6 14 5 16
31 16 179 0 148 -2 174 -16 179 -31 12 -319 7 -332 -6z m278 -173 l0 -115
-110 0 -110 0 0 115 0 115 110 0 110 0 0 -115z"/>
<path d="M3118 3689 c-16 -9 -18 -28 -18 -174 0 -152 1 -165 19 -175 11 -5 85
-10 170 -10 123 0 152 3 165 16 23 23 23 315 0 338 -13 13 -42 16 -167 16 -85
0 -160 -5 -169 -11z m277 -174 l0 -110 -110 0 -110 0 -3 99 c-1 55 0 106 2
113 4 11 30 13 113 11 l108 -3 0 -110z"/>
<path d="M3556 3684 c-13 -13 -16 -43 -16 -169 0 -126 3 -156 16 -169 13 -13
42 -16 165 -16 l149 0 0 35 0 34 -127 3 -128 3 0 110 0 110 53 3 52 3 0 35 0
34 -74 0 c-54 0 -79 -4 -90 -16z"/>
<path d="M4000 3690 c-12 -8 -15 -39 -15 -175 0 -136 3 -167 15 -175 8 -5 81
-10 163 -10 l147 0 0 35 0 35 -125 0 -125 0 0 115 0 115 55 0 55 0 0 35 0 35
-77 0 c-43 0 -85 -5 -93 -10z"/>
<path d="M3825 3590 l-59 -60 -23 22 c-26 24 -46 19 -67 -16 -9 -14 -4 -24 31
-56 23 -22 47 -40 54 -40 6 0 48 36 93 80 l81 79 -25 26 -26 25 -59 -60z"/>
<path d="M4265 3590 l-59 -60 -23 22 -24 22 -25 -25 -25 -25 46 -43 c54 -50
53 -50 150 48 l70 71 -26 25 -25 25 -59 -60z"/>
<path d="M2672 3098 c-17 -17 -17 -329 0 -346 8 -8 59 -12 165 -12 l153 0 0
35 0 35 -130 0 -130 0 0 115 0 115 55 0 55 0 0 35 0 35 -78 0 c-47 0 -83 -5
-90 -12z"/>
<path d="M3118 3099 c-16 -9 -18 -28 -18 -174 0 -152 1 -165 19 -175 11 -5 84
-10 165 -10 l146 0 0 35 0 34 -127 3 -128 3 0 110 0 110 53 3 52 3 0 35 0 34
-72 0 c-40 0 -81 -5 -90 -11z"/>
<path d="M3556 3094 c-13 -13 -16 -43 -16 -169 0 -126 3 -156 16 -169 13 -13
42 -16 165 -16 85 0 159 5 170 10 18 10 19 23 19 175 0 152 -1 165 -19 175
-11 5 -85 10 -170 10 -123 0 -152 -3 -165 -16z m279 -169 l0 -110 -110 0 -110
0 -3 99 c-1 55 0 106 2 113 4 11 30 13 113 11 l108 -3 0 -110z"/>
<path d="M4000 3100 c-12 -8 -15 -39 -15 -175 0 -136 3 -167 15 -175 20 -13
306 -13 331 0 18 10 19 23 19 175 0 152 -1 165 -19 175 -25 13 -311 13 -331 0z
m280 -175 l0 -115 -110 0 -110 0 0 115 0 115 110 0 110 0 0 -115z"/>
<path d="M2935 3000 l-59 -60 -23 22 -24 22 -25 -25 -25 -25 45 -42 c25 -23
51 -42 57 -42 6 0 48 36 93 79 l81 80 -24 25 c-14 14 -27 26 -31 26 -3 0 -32
-27 -65 -60z"/>
<path d="M3384 2999 l-60 -60 -28 22 -28 22 -24 -25 -25 -24 45 -42 c25 -23
51 -42 57 -42 6 0 48 36 93 80 l81 79 -25 26 -25 25 -61 -61z"/>
<path d="M6064 2566 c-26 -26 -34 -42 -34 -70 0 -60 24 -101 107 -183 88 -87
113 -131 113 -196 0 -51 -24 -88 -73 -113 -41 -22 -111 -14 -143 17 -17 16
-27 20 -35 12 -8 -8 0 -18 27 -37 31 -21 51 -26 96 -26 52 0 62 3 98 36 56 51
69 98 46 170 -14 45 -34 73 -107 149 -119 126 -135 170 -80 226 33 33 67 37
112 13 39 -20 52 -9 20 17 -15 12 -39 19 -68 19 -38 0 -50 -5 -79 -34z"/>
<path d="M5540 2285 c0 -197 4 -305 10 -305 6 0 10 38 10 94 l0 94 31 6 c17 3
38 6 45 6 8 0 35 -44 60 -100 26 -55 53 -100 60 -100 8 0 14 2 14 5 0 3 -23
51 -51 106 l-50 101 35 33 c138 126 53 365 -129 365 l-35 0 0 -305z m128 253
c18 -11 44 -40 58 -64 22 -38 26 -54 22 -103 -6 -91 -64 -157 -148 -168 l-40
-6 0 180 c0 99 3 183 7 187 10 10 63 -3 101 -26z"/>
<path d="M5820 2285 l0 -305 60 0 c33 0 60 4 60 10 0 6 -20 10 -45 10 l-45 0
0 185 0 185 45 0 c33 0 45 4 45 15 0 11 -12 15 -45 15 l-45 0 0 85 0 85 45 0
c25 0 45 5 45 10 0 6 -27 10 -60 10 l-60 0 0 -305z"/>
<path d="M6290 2580 c0 -5 20 -10 45 -10 l45 0 0 -295 c0 -190 4 -295 10 -295
6 0 10 105 10 295 l0 295 45 0 c25 0 45 5 45 10 0 6 -40 10 -100 10 -60 0
-100 -4 -100 -10z"/>
<path d="M6664 2577 c-80 -27 -139 -80 -185 -167 -34 -64 -34 -186 0 -250 38
-73 76 -114 133 -146 48 -26 62 -29 143 -29 107 0 162 22 227 93 58 63 82 123
82 207 1 163 -125 294 -289 301 -41 2 -87 -2 -111 -9z m211 -36 c62 -28 101
-66 134 -133 96 -190 -39 -404 -254 -403 -244 2 -367 284 -205 469 78 89 213
117 325 67z"/>
<path d="M7110 2285 c0 -264 2 -305 15 -305 12 0 15 17 15 95 l0 94 37 7 c43
8 44 7 98 -110 22 -47 46 -85 53 -86 17 0 17 0 -38 111 l-51 100 40 39 c109
106 77 287 -61 345 -21 8 -53 15 -73 15 l-35 0 0 -305z m128 253 c67 -41 101
-146 71 -225 -21 -57 -95 -113 -149 -113 -19 0 -20 6 -20 186 l0 186 33 -7
c17 -4 47 -16 65 -27z"/>
<path d="M7535 2578 c-8 -25 -145 -578 -145 -588 0 -5 4 -10 10 -10 5 0 15 20
21 45 l12 46 120 -3 121 -3 9 -42 c5 -25 14 -43 21 -43 10 0 -8 85 -63 305
-50 204 -80 305 -89 305 -7 0 -15 -6 -17 -12z m125 -465 c0 -10 -29 -13 -110
-13 -60 0 -110 2 -110 5 0 10 100 409 107 425 5 13 112 -383 113 -417z"/>
<path d="M7770 2285 c0 -194 4 -305 10 -305 6 0 11 109 12 293 l3 292 77 -76
c59 -58 86 -93 113 -150 42 -89 65 -188 65 -286 0 -42 4 -73 10 -73 6 0 10
108 10 305 0 192 -4 305 -10 305 -6 0 -11 -65 -12 -162 l-3 -163 -31 65 c-18
36 -48 88 -68 115 -38 53 -142 145 -163 145 -10 0 -13 -65 -13 -305z"/>
<path d="M8261 2553 c-33 -124 -139 -568 -136 -571 10 -10 24 12 30 48 l7 40
123 0 123 0 7 -40 c6 -37 20 -58 31 -48 2 3 -25 124 -61 269 -88 353 -84 339
-100 339 -8 0 -19 -16 -24 -37z m82 -236 l55 -217 -113 0 -113 0 56 220 c30
122 56 219 58 218 1 -2 27 -101 57 -221z"/>
<path d="M8500 2285 c0 -197 4 -305 10 -305 6 0 10 100 11 278 l0 277 77 -152
c49 -97 82 -153 92 -153 10 0 43 56 92 153 l77 152 0 -277 c1 -178 5 -278 11
-278 6 0 10 108 10 305 0 197 -4 305 -10 305 -6 0 -47 -74 -92 -164 -45 -91
-85 -163 -88 -161 -3 2 -42 76 -85 164 -43 89 -85 161 -92 161 -10 0 -13 -61
-13 -305z"/>
</g>
</svg>
