<?xml version="1.0" encoding="utf-8"?>
<!-- Generator: Adobe Illustrator 26.5.0, SVG Export Plug-In . SVG Version: 6.00 Build 0)  -->
<svg version="1.1" id="Слой_1" xmlns="http://www.w3.org/2000/svg" xmlns:xlink="http://www.w3.org/1999/xlink" x="0px" y="0px"
	 viewBox="0 0 647.1 309.5" style="enable-background:new 0 0 647.1 309.5;" xml:space="preserve">
<g transform="translate(0.000000,704.000000) scale(0.100000,-0.100000)">
	<path d="M3141,5885.6v-1161h45h45l2,368l3,367l80,7c328,30,599,264,686,593c29,111,29,279,0,390c-61,230-208,413-418,518
		c-87,45-188,68-320,74l-123,6V5885.6z M3426,6927.6c205-50,393-227,469-442c29-80,31-95,31-226c0-128-3-148-29-229
		c-85-258-325-450-591-473l-75-6v695c0,382,3,698,7,702C3247,6957.6,3352,6946.6,3426,6927.6z"/>
	<path d="M5166,7033.6c-252-34-508-167-684-355c-208-223-313-487-313-789c-1-318,118-602,346-830c347-347,884-431,1326-210
		c633,318,838,1126,430,1703c-168,238-422,404-715,467C5467,7038.6,5258,7046.6,5166,7033.6z M5430,6944.6c681-70,1121-749,905-1395
		c-37-112-83-199-153-292c-151-200-347-334-588-400c-89-25-114-28-268-28c-210,0-293,18-470,105c-380,185-611,573-592,995
		c12,253,94,461,262,659c162,191,430,331,677,355C5324,6955.6,5320,6955.6,5430,6944.6z"/>
	<path d="M314,6576.6c-7-4-13-36-15-72l-3-65l-134-3c-79-1-140-7-148-14c-18-15-19-2018-1-2036c17-17,2169-17,2186,0
		c18,18,17,2021-1,2036c-8,7-69,13-148,14l-134,3l-3,65c-2,36-8,68-15,72s-48,8-92,8s-85-4-92-8s-13-36-15-72l-3-65h-240h-240l-3,65
		c-2,36-8,68-15,72s-48,8-92,8s-85-4-92-8s-13-36-15-72l-3-65H756H516l-3,65c-2,36-8,68-15,72s-48,8-92,8S321,6580.6,314,6576.6z
		 M441,6364.6v-150h-35h-35v150v150h35h35V6364.6z M1141,6364.6v-150h-35h-35v150v150h35h35V6364.6z M1841,6364.6v-150h-35h-35v150
		v150h35h35V6364.6z M301,6254.6l5-105l80-3c130-5,125-10,125,113v105l243-2l242-3l5-105l5-105l80-3c130-5,125-10,125,113v105h245
		h244l3-107l3-108h100h100l3,108l3,107h114h115v-260v-260H1106H71v260v261l113-3l112-3L301,6254.6z M2141,5109.6v-665H1106H71v665
		v665h1035h1035V5109.6z"/>
	<path d="M273,5652.6c-17-17-17-329,0-346c13-13,301-18,332-6c14,5,16,31,16,179s-2,174-16,179C574,5670.6,286,5665.6,273,5652.6z
		 M551,5479.6v-115H441H331v115v115h110h110V5479.6z"/>
	<path d="M719,5653.6c-16-9-18-28-18-174c0-152,1-165,19-175c11-5,85-10,170-10c123,0,152,3,165,16c23,23,23,315,0,338
		c-13,13-42,16-167,16C803,5664.6,728,5659.6,719,5653.6z M996,5479.6v-110H886H776l-3,99c-1,55,0,106,2,113c4,11,30,13,113,11
		l108-3V5479.6z"/>
	<path d="M1157,5648.6c-13-13-16-43-16-169s3-156,16-169s42-16,165-16h149v35v34l-127,3l-128,3v110v110l53,3l52,3v35v34h-74
		C1193,5664.6,1168,5660.6,1157,5648.6z"/>
	<path d="M1601,5654.6c-12-8-15-39-15-175s3-167,15-175c8-5,81-10,163-10h147v35v35h-125h-125v115v115h55h55v35v35h-77
		C1651,5664.6,1609,5659.6,1601,5654.6z"/>
	<path d="M1426,5554.6l-59-60l-23,22c-26,24-46,19-67-16c-9-14-4-24,31-56c23-22,47-40,54-40c6,0,48,36,93,80l81,79l-25,26l-26,25
		L1426,5554.6z"/>
	<path d="M1866,5554.6l-59-60l-23,22l-24,22l-25-25l-25-25l46-43c54-50,53-50,150,48l70,71l-26,25l-25,25L1866,5554.6z"/>
	<path d="M273,5062.6c-17-17-17-329,0-346c8-8,59-12,165-12h153v35v35H461H331v115v115h55h55v35v35h-78
		C316,5074.6,280,5069.6,273,5062.6z"/>
	<path d="M719,5063.6c-16-9-18-28-18-174c0-152,1-165,19-175c11-5,84-10,165-10h146v35v34l-127,3l-128,3v110v110l53,3l52,3v35v34
		h-72C769,5074.6,728,5069.6,719,5063.6z"/>
	<path d="M1157,5058.6c-13-13-16-43-16-169s3-156,16-169s42-16,165-16c85,0,159,5,170,10c18,10,19,23,19,175s-1,165-19,175
		c-11,5-85,10-170,10C1199,5074.6,1170,5071.6,1157,5058.6z M1436,4889.6v-110h-110h-110l-3,99c-1,55,0,106,2,113c4,11,30,13,113,11
		l108-3V4889.6z"/>
	<path d="M1601,5064.6c-12-8-15-39-15-175s3-167,15-175c20-13,306-13,331,0c18,10,19,23,19,175s-1,165-19,175
		C1907,5077.6,1621,5077.6,1601,5064.6z M1881,4889.6v-115h-110h-110v115v115h110h110V4889.6z"/>
	<path d="M536,4964.6l-59-60l-23,22l-24,22l-25-25l-25-25l45-42c25-23,51-42,57-42s48,36,93,79l81,80l-24,25c-14,14-27,26-31,26
		C598,5024.6,569,4997.6,536,4964.6z"/>
	<path d="M985,4963.6l-60-60l-28,22l-28,22l-24-25l-25-24l45-42c25-23,51-42,57-42s48,36,93,80l81,79l-25,26l-25,25L985,4963.6z"/>
	<path d="M3665,4530.6c-26-26-34-42-34-70c0-60,24-101,107-183c88-87,113-131,113-196c0-51-24-88-73-113c-41-22-111-14-143,17
		c-17,16-27,20-35,12s0-18,27-37c31-21,51-26,96-26c52,0,62,3,98,36c56,51,69,98,46,170c-14,45-34,73-107,149
		c-119,126-135,170-80,226c33,33,67,37,112,13c39-20,52-9,20,17c-15,12-39,19-68,19C3706,4564.6,3694,4559.6,3665,4530.6z"/>
	<path d="M3141,4249.6c0-197,4-305,10-305s10,38,10,94v94l31,6c17,3,38,6,45,6c8,0,35-44,60-100c26-55,53-100,60-100c8,0,14,2,14,5
		s-23,51-51,106l-50,101l35,33c138,126,53,365-129,365h-35V4249.6z M3269,4502.6c18-11,44-40,58-64c22-38,26-54,22-103
		c-6-91-64-157-148-168l-40-6v180c0,99,3,183,7,187C3178,4538.6,3231,4525.6,3269,4502.6z"/>
	<path d="M3421,4249.6v-305h60c33,0,60,4,60,10s-20,10-45,10h-45v185v185h45c33,0,45,4,45,15s-12,15-45,15h-45v85v85h45
		c25,0,45,5,45,10c0,6-27,10-60,10h-60V4249.6z"/>
	<path d="M3891,4544.6c0-5,20-10,45-10h45v-295c0-190,4-295,10-295s10,105,10,295v295h45c25,0,45,5,45,10c0,6-40,10-100,10
		S3891,4550.6,3891,4544.6z"/>
	<path d="M4265,4541.6c-80-27-139-80-185-167c-34-64-34-186,0-250c38-73,76-114,133-146c48-26,62-29,143-29c107,0,162,22,227,93
		c58,63,82,123,82,207c1,163-125,294-289,301C4335,4552.6,4289,4548.6,4265,4541.6z M4476,4505.6c62-28,101-66,134-133
		c96-190-39-404-254-403c-244,2-367,284-205,469C4229,4527.6,4364,4555.6,4476,4505.6z"/>
	<path d="M4711,4249.6c0-264,2-305,15-305c12,0,15,17,15,95v94l37,7c43,8,44,7,98-110c22-47,46-85,53-86c17,0,17,0-38,111l-51,100
		l40,39c109,106,77,287-61,345c-21,8-53,15-73,15h-35V4249.6z M4839,4502.6c67-41,101-146,71-225c-21-57-95-113-149-113
		c-19,0-20,6-20,186v186l33-7C4791,4525.6,4821,4513.6,4839,4502.6z"/>
	<path d="M5136,4542.6c-8-25-145-578-145-588c0-5,4-10,10-10c5,0,15,20,21,45l12,46l120-3l121-3l9-42c5-25,14-43,21-43
		c10,0-8,85-63,305c-50,204-80,305-89,305C5146,4554.6,5138,4548.6,5136,4542.6z M5261,4077.6c0-10-29-13-110-13c-60,0-110,2-110,5
		c0,10,100,409,107,425C5153,4507.6,5260,4111.6,5261,4077.6z"/>
	<path d="M5371,4249.6c0-194,4-305,10-305s11,109,12,293l3,292l77-76c59-58,86-93,113-150c42-89,65-188,65-286c0-42,4-73,10-73
		s10,108,10,305c0,192-4,305-10,305s-11-65-12-162l-3-163l-31,65c-18,36-48,88-68,115c-38,53-142,145-163,145
		C5374,4554.6,5371,4489.6,5371,4249.6z"/>
	<path d="M5862,4517.6c-33-124-139-568-136-571c10-10,24,12,30,48l7,40h123h123l7-40c6-37,20-58,31-48c2,3-25,124-61,269
		c-88,353-84,339-100,339C5878,4554.6,5867,4538.6,5862,4517.6z M5944,4281.6l55-217h-113h-113l56,220c30,122,56,219,58,218
		C5888,4500.6,5914,4401.6,5944,4281.6z"/>
	<path d="M6101,4249.6c0-197,4-305,10-305s10,100,11,278v277l77-152c49-97,82-153,92-153s43,56,92,153l77,152v-277
		c1-178,5-278,11-278s10,108,10,305c0,197-4,305-10,305s-47-74-92-164c-45-91-85-163-88-161s-42,76-85,164c-43,89-85,161-92,161
		C6104,4554.6,6101,4493.6,6101,4249.6z"/>
</g>
</svg>
